<svg width="256" height="256" viewBox="0 0 256 256" fill="none" xmlns="http://www.w3.org/2000/svg">
<rect width="256" height="256" fill="#381B8A"/>
<path d="M178.662 194.025C178.662 190.165 175.537 187.122 171.743 187.122C167.875 187.122 164.825 190.239 164.825 194.025C164.825 197.81 167.949 200.928 171.743 200.928C175.612 200.928 178.662 197.81 178.662 194.025Z" fill="white"/>
<path d="M173.305 177.472H170.107C168.619 177.472 167.428 176.359 167.28 174.948L165.122 155.649C164.973 154.016 166.238 152.532 167.949 152.532H175.463C177.1 152.532 178.439 153.942 178.29 155.649L176.132 174.948C175.984 176.359 174.793 177.472 173.305 177.472Z" fill="white"/>
<path d="M208.121 218H135.365C130.009 218 125.173 215.254 122.495 210.577C119.817 205.901 119.817 200.408 122.495 195.732L158.873 132.862C161.551 128.186 166.387 125.439 171.743 125.439C177.099 125.439 181.935 128.186 184.613 132.862L220.991 195.732C223.67 200.408 223.67 205.901 220.991 210.577C218.313 215.254 213.478 218 208.121 218ZM171.743 135.831C170.999 135.831 169.065 136.054 167.875 138.058L131.497 200.928C130.306 202.932 131.125 204.713 131.497 205.381C131.868 206.049 133.059 207.608 135.365 207.608H208.121C210.428 207.608 211.618 206.049 211.99 205.381C212.362 204.713 213.18 202.932 211.99 200.928L175.612 138.058C174.496 136.054 172.562 135.831 171.743 135.831Z" fill="white"/>
<path fill-rule="evenodd" clip-rule="evenodd" d="M121.081 185.34L115.13 195.584H47.953C39.6954 195.584 33 188.903 33 180.664V72.8124C33 64.5732 39.6954 57.8928 47.953 57.8928V68.1361C45.3493 68.1361 43.2662 70.2144 43.2662 72.8124V180.664C43.2662 183.262 45.3493 185.34 47.953 185.34H121.081Z" fill="white"/>
<path fill-rule="evenodd" clip-rule="evenodd" d="M176.802 38H68.7086C60.451 38 53.7556 44.6804 53.7556 52.9196V160.771C53.7556 169.01 60.451 175.691 68.7086 175.691H126.586L132.538 165.447H68.7086C66.1049 165.447 64.0219 163.369 64.0219 160.771V52.9196C64.0219 50.3216 66.1049 48.2433 68.7086 48.2433H176.802C179.406 48.2433 181.489 50.3216 181.489 52.9196V115.864L191.755 133.678V52.9196C191.755 44.6804 185.059 38 176.802 38Z" fill="white"/>
<path fill-rule="evenodd" clip-rule="evenodd" d="M152.962 110.849C150.776 106.866 148.658 102.952 146.472 98.9678C143.603 93.656 140.665 88.3442 137.795 83.0324C137.59 82.6829 137.386 82.3335 137.181 81.984C135.541 79.398 132.945 79.3281 131.237 81.8442C130.144 83.3818 129.256 85.0593 128.231 86.6668C126.045 90.2313 123.927 93.7259 121.741 97.2904C119.828 100.366 116.343 101.414 113.611 99.5269C110.536 97.5001 106.506 98.5485 104.388 101.065C101.382 104.769 98.3074 108.403 95.2331 112.108C94.8231 112.597 94.4815 113.156 94.2083 113.785C93.6617 115.183 94.2083 116.301 95.643 116.72C96.3261 116.93 97.0776 117 97.8292 117C106.437 117 115.045 117 123.722 117C132.33 117 140.938 117 149.615 117C150.229 117 150.844 116.93 151.391 116.79C153.509 116.301 154.465 114.694 153.782 112.597C153.577 111.968 153.304 111.409 152.962 110.849Z" fill="white"/>
<path fill-rule="evenodd" clip-rule="evenodd" d="M102.567 86.9992C107.852 86.9326 112 82.7327 112 77.4663C112 72.1998 107.785 68 102.567 68C97.3486 68 93 72.2665 93 77.5329C93 82.7994 97.3486 87.0659 102.567 86.9992Z" fill="white"/>
</svg>
